# xmcd
#
# Track frame offsets:
#	150
#	11722
#	24367
#	34717
#	46385
#	56790
#	66157
#	78492
#	92122
#	102515
#	112600
#	123757
#	137990
#	149420
#	161542
#	169647
#
# Disc length: 2423 seconds
#
# Revision: 0
# Processed by: cddbd v1.5.2PL0 Copyright (c) Steve Scherf et al.
# Submitted via: EasyCDDAExtractor 15.3.0.1
#
DISCID=d2097510
DTITLE=Slim Whitman - Cowpoke
DYEAR=1991
DGENRE=Country
TTITLE0=Walking in the Sunshine
TTITLE1=Virginia
TTITLE2=Kentucky Waltz
TTITLE3=Rainbows are Back in Style
TTITLE4=It Sure Looks Lonesome Outside
TTITLE5=Rainbow on the Rio Colorado
TTITLE6=A Satisfied Mind
TTITLE7=Beautiful Dreamer
TTITLE8=Cowpoke
TTITLE9=On the Sunny Side of the Rockies
TTITLE10=Singing Hills
TTITLE11=That Silver Haired Daddy of Mine
TTITLE12=Just an Echo in the Valley
TTITLE13=I Love You Because
TTITLE14=Near You
TTITLE15=Til We Meet Again
EXTD=
EXTT0=
EXTT1=
EXTT2=
EXTT3=
EXTT4=
EXTT5=
EXTT6=
EXTT7=
EXTT8=
EXTT9=
EXTT10=
EXTT11=
EXTT12=
EXTT13=
EXTT14=
EXTT15=
PLAYORDER=
